<svg width="52" height="52" viewBox="0 0 52 52" fill="none" xmlns="http://www.w3.org/2000/svg">
<g opacity="0.75">
<path d="M25.889 19.2808V33.6649V19.2808Z" fill="white"/>
<path d="M25.889 19.2808V33.6649" stroke="#B026FF" stroke-width="3" stroke-linecap="round" stroke-linejoin="round"/>
</g>
<g opacity="0.75">
<path d="M18.6973 26.4724H33.0814H18.6973Z" fill="white"/>
<path d="M18.6973 26.4724H33.0814" stroke="#B026FF" stroke-width="3" stroke-linecap="round" stroke-linejoin="round"/>
</g>
<path d="M26 51.5C24.2963 51.5 22.6322 51.333 21.0228 51.0146L20.9258 51.5051C17.5147 50.8303 14.3436 49.4883 11.554 47.6207L11.8322 47.2052C9.05113 45.3434 6.65663 42.9489 4.79478 40.1678L4.3793 40.446C2.51172 37.6564 1.1697 34.4853 0.494885 31.0742L0.985379 30.9772C0.667002 29.3678 0.5 27.7037 0.5 26C0.5 24.2963 0.667003 22.6322 0.985379 21.0228L0.494885 20.9258C1.1697 17.5147 2.51172 14.3436 4.3793 11.554L4.79478 11.8322C6.65663 9.05113 9.05113 6.65663 11.8322 4.79478L11.554 4.3793C14.3436 2.51172 17.5147 1.1697 20.9258 0.494885L21.0228 0.985379C22.6322 0.667002 24.2963 0.5 26 0.5C27.7037 0.5 29.3678 0.667003 30.9772 0.985379L31.0742 0.494885C34.4853 1.1697 37.6564 2.51172 40.446 4.3793L40.1678 4.79478C42.9489 6.65663 45.3434 9.05113 47.2052 11.8322L47.6207 11.554C49.4883 14.3436 50.8303 17.5147 51.5051 20.9258L51.0146 21.0228C51.333 22.6322 51.5 24.2963 51.5 26C51.5 27.7037 51.333 29.3678 51.0146 30.9772L51.5051 31.0742C50.8303 34.4853 49.4883 37.6564 47.6207 40.446L47.2052 40.1678C45.3434 42.9489 42.9489 45.3434 40.1678 47.2052L40.446 47.6207C37.6564 49.4883 34.4853 50.8303 31.0742 51.5051L30.9772 51.0146C29.3678 51.333 27.7037 51.5 26 51.5Z" stroke="#B026FF" stroke-dasharray="10 10"/>
</svg>
