<svg width="24" height="24" viewBox="0 0 24 24" fill="none" xmlns="http://www.w3.org/2000/svg">
<path d="M23.3506 11.9253C23.3506 12.0514 23.304 12.1969 23.1866 12.3813C23.0672 12.5689 22.8986 12.7605 22.6948 12.9803C22.666 13.0114 22.6363 13.0432 22.606 13.0757C22.4338 13.2601 22.2422 13.4654 22.0817 13.6747C21.8949 13.9184 21.7136 14.2122 21.6417 14.5538C21.5571 14.8833 21.5749 15.2261 21.6176 15.5319C21.6526 15.7821 21.7107 16.0445 21.7635 16.2832C21.7759 16.3393 21.788 16.3941 21.7995 16.4471C21.8631 16.7416 21.9095 16.9927 21.9159 17.2112C21.9223 17.4274 21.8876 17.5649 21.8305 17.6578C21.769 17.7577 21.6575 17.856 21.464 17.9548C21.2683 18.0547 21.0288 18.1356 20.7452 18.2234C20.7027 18.2366 20.659 18.25 20.6144 18.2636C20.3768 18.3364 20.1138 18.4169 19.8723 18.5143C19.5838 18.6305 19.2773 18.7887 19.033 19.033C18.7887 19.2773 18.6305 19.5838 18.5143 19.8723C18.4169 20.1138 18.3364 20.3768 18.2636 20.6144C18.25 20.659 18.2366 20.7027 18.2234 20.7452C18.1356 21.0288 18.0547 21.2683 17.9548 21.464C17.856 21.6575 17.7577 21.769 17.6578 21.8305C17.5649 21.8876 17.4274 21.9223 17.2112 21.9159C16.9927 21.9095 16.7416 21.8631 16.4471 21.7995C16.3941 21.788 16.3393 21.7759 16.2832 21.7635C16.0445 21.7107 15.7821 21.6526 15.5319 21.6176C15.2214 21.5742 14.8728 21.5565 14.5386 21.6456C14.2049 21.7346 13.9153 21.9208 13.6714 22.1112C13.4768 22.263 13.2836 22.4405 13.1081 22.6017C13.0656 22.6407 13.0242 22.6788 12.984 22.7154C12.7658 22.9137 12.5746 23.0767 12.3879 23.1915C12.2046 23.3041 12.0566 23.3506 11.9253 23.3506C11.7992 23.3506 11.6537 23.304 11.4693 23.1866C11.2817 23.0672 11.0901 22.8986 10.8703 22.6948C10.8392 22.666 10.8074 22.6363 10.7749 22.606C10.5905 22.4338 10.3852 22.2422 10.1759 22.0817C9.93222 21.8949 9.63836 21.7136 9.29681 21.6417C8.9673 21.5571 8.62452 21.5749 8.3187 21.6176C8.06847 21.6526 7.80603 21.7107 7.56739 21.7635C7.51127 21.7759 7.45646 21.788 7.40344 21.7995C7.10896 21.8631 6.85792 21.9095 6.63936 21.9159C6.42321 21.9223 6.28572 21.8876 6.19281 21.8305C6.09285 21.769 5.99459 21.6575 5.89581 21.464C5.79593 21.2683 5.71503 21.0288 5.62716 20.7452C5.61399 20.7027 5.60062 20.659 5.58697 20.6145C5.51419 20.3768 5.43365 20.1138 5.3363 19.8723C5.22006 19.5838 5.0619 19.2773 4.81757 19.033C4.57324 18.7887 4.26674 18.6305 3.97833 18.5143C3.73681 18.4169 3.47381 18.3364 3.23616 18.2636C3.19158 18.25 3.14789 18.2366 3.1054 18.2234C2.8218 18.1356 2.58227 18.0547 2.38659 17.9548C2.19309 17.856 2.08163 17.7577 2.02012 17.6578C1.96295 17.5649 1.92824 17.4274 1.93464 17.2112C1.94112 16.9927 1.98744 16.7416 2.05111 16.4471C2.06258 16.3941 2.0747 16.3393 2.08712 16.2832C2.13991 16.0445 2.19796 15.7821 2.23296 15.5319C2.27638 15.2214 2.29405 14.8728 2.20495 14.5386C2.11595 14.2049 1.92976 13.9153 1.73938 13.6714C1.58755 13.4768 1.41008 13.2836 1.24893 13.1082C1.20987 13.0656 1.17177 13.0242 1.13523 12.984C0.936914 12.7658 0.7739 12.5746 0.659121 12.3879C0.546486 12.2046 0.5 12.0566 0.5 11.9253C0.5 11.7992 0.546635 11.6537 0.663964 11.4693C0.78338 11.2817 0.951947 11.0901 1.15581 10.8703C1.18461 10.8392 1.2143 10.8074 1.24458 10.7749C1.41676 10.5905 1.60839 10.3852 1.76886 10.1759C1.95573 9.93221 2.13697 9.63835 2.20892 9.29679C2.29351 8.96729 2.27573 8.62451 2.23296 8.3187C2.19796 8.06848 2.13991 7.80604 2.08712 7.5674C2.0747 7.51128 2.06258 7.45647 2.05111 7.40344C1.98744 7.10896 1.94112 6.85792 1.93464 6.63936C1.92824 6.42321 1.96295 6.28572 2.02012 6.19281C2.07965 6.09607 2.1918 5.99772 2.39184 5.89769C2.59309 5.79707 2.83899 5.71587 3.12743 5.62773C3.16562 5.61607 3.20472 5.60423 3.24452 5.59219C3.48966 5.51799 3.76112 5.43583 4.00709 5.33555C4.28953 5.2204 4.59355 5.06074 4.82584 4.80923C5.06548 4.56629 5.22138 4.26347 5.3363 3.97833C5.43365 3.7368 5.51419 3.47379 5.58697 3.23614C5.60062 3.19156 5.61399 3.14788 5.62716 3.1054C5.71503 2.8218 5.79593 2.58227 5.89581 2.38659C5.99459 2.19309 6.09285 2.08163 6.19281 2.02012C6.28572 1.96295 6.42321 1.92824 6.63936 1.93464C6.85792 1.94112 7.10896 1.98744 7.40344 2.05111C7.45647 2.06258 7.51128 2.0747 7.56741 2.08712C7.80605 2.13991 8.06848 2.19796 8.3187 2.23296C8.62451 2.27573 8.96729 2.29351 9.29679 2.20892C9.63835 2.13697 9.93221 1.95573 10.1759 1.76886C10.3852 1.60839 10.5905 1.41677 10.7749 1.24459C10.8074 1.2143 10.8392 1.18462 10.8703 1.15581C11.0901 0.951947 11.2817 0.78338 11.4693 0.663964C11.6537 0.546635 11.7992 0.5 11.9253 0.5C12.0514 0.5 12.1969 0.546635 12.3813 0.663964C12.5689 0.78338 12.7605 0.951947 12.9803 1.15581C13.0114 1.18461 13.0432 1.2143 13.0756 1.24458C13.2601 1.41676 13.4654 1.60839 13.6747 1.76886C13.9184 1.95573 14.2122 2.13697 14.5538 2.20892C14.8833 2.29351 15.2261 2.27573 15.5319 2.23296C15.7821 2.19796 16.0445 2.13991 16.2832 2.08712C16.3393 2.0747 16.3941 2.06258 16.4471 2.05111C16.7416 1.98744 16.9927 1.94112 17.2112 1.93464C17.4274 1.92824 17.5649 1.96295 17.6578 2.02012C17.7577 2.08163 17.856 2.19309 17.9548 2.38659C18.0547 2.58227 18.1356 2.8218 18.2234 3.1054C18.2366 3.14789 18.25 3.19158 18.2636 3.23616C18.3364 3.47381 18.4169 3.73681 18.5143 3.97833C18.6305 4.26674 18.7887 4.57324 19.033 4.81757C19.2773 5.0619 19.5838 5.22006 19.8723 5.3363C20.1138 5.43365 20.3768 5.51419 20.6145 5.58697C20.659 5.60062 20.7027 5.61399 20.7452 5.62716C21.0288 5.71503 21.2683 5.79593 21.464 5.89582C21.6575 5.99459 21.769 6.09286 21.8305 6.19281C21.8876 6.28572 21.9223 6.42321 21.9159 6.63936C21.9095 6.85792 21.8631 7.10896 21.7995 7.40344C21.788 7.45646 21.7759 7.51127 21.7635 7.56739C21.7107 7.80604 21.6526 8.06847 21.6176 8.3187C21.5749 8.62452 21.5571 8.9673 21.6417 9.29681C21.7136 9.63836 21.8949 9.93222 22.0817 10.1759C22.2422 10.3852 22.4338 10.5905 22.606 10.775C22.6363 10.8074 22.666 10.8392 22.6948 10.8703C22.8986 11.0901 23.0672 11.2817 23.1866 11.4693C23.304 11.6537 23.3506 11.7992 23.3506 11.9253Z" stroke="white"/>
<g clip-path="url(#clip0_0_1)">
<path d="M10.3965 14.8821L7.14642 12.2672C7.09993 12.2298 7.06304 12.1855 7.03788 12.1367C7.01271 12.0878 6.99976 12.0355 6.99976 11.9826C6.99976 11.9298 7.01271 11.8774 7.03788 11.8286C7.06304 11.7798 7.09993 11.7354 7.14642 11.6981L7.8538 11.1295C7.90022 11.092 7.95535 11.0624 8.01604 11.0421C8.07673 11.0219 8.14178 11.0114 8.20748 11.0114C8.27319 11.0114 8.33824 11.0219 8.39893 11.0421C8.45962 11.0624 8.51475 11.092 8.56117 11.1295L10.7505 12.8909L15.4394 9.12044C15.4859 9.08304 15.541 9.05336 15.6017 9.03311C15.6624 9.01286 15.7274 9.00244 15.7931 9.00244C15.8588 9.00244 15.9239 9.01286 15.9846 9.03311C16.0453 9.05336 16.1004 9.08304 16.1468 9.12044L16.8542 9.68958C16.9007 9.72693 16.9376 9.77129 16.9627 9.82012C16.9879 9.86895 17.0009 9.92129 17.0009 9.97415C17.0009 10.027 16.9879 10.0794 16.9627 10.1282C16.9376 10.177 16.9007 10.2214 16.8542 10.2587L11.1038 14.8853C11.0571 14.9225 11.0018 14.952 10.941 14.9719C10.8801 14.9919 10.815 15.002 10.7493 15.0017C10.6836 15.0014 10.6186 14.9907 10.5581 14.9702C10.4975 14.9496 10.4426 14.9197 10.3965 14.8821V14.8821Z" fill="white"/>
</g>
<defs>
<clipPath id="clip0_0_1">
<rect width="10" height="6" fill="white" transform="translate(7 9)"/>
</clipPath>
</defs>
</svg>
