<svg width="54" height="54" viewBox="0 0 54 54" fill="none" xmlns="http://www.w3.org/2000/svg">
<g filter="url(#filter0_b_0_1)">
<circle cx="27" cy="27" r="27" fill="#0A070C" fill-opacity="0.6"/>
</g>
<path d="M22.07 26.8061L31.007 17.8761C31.3231 17.559 31.5003 17.1293 31.4997 16.6816C31.499 16.2339 31.3205 15.8047 31.0035 15.4886C30.6864 15.1724 30.2567 14.9952 29.809 14.9959C29.3612 14.9965 28.9321 15.175 28.616 15.4921L18.491 25.6061C18.185 25.9132 18.0093 26.3264 18.0001 26.7597C17.991 27.1931 18.1492 27.6134 18.442 27.9331L28.609 38.1261C28.9251 38.4431 29.3542 38.6216 29.802 38.6223C30.2497 38.6229 30.6794 38.4457 30.9965 38.1296C31.3135 37.8134 31.492 37.3843 31.4927 36.9365C31.4933 36.4888 31.3161 36.0591 31 35.7421L22.07 26.8061Z" fill="white"/>
<defs>
<filter id="filter0_b_0_1" x="-20" y="-20" width="94" height="94" filterUnits="userSpaceOnUse" color-interpolation-filters="sRGB">
<feFlood flood-opacity="0" result="BackgroundImageFix"/>
<feGaussianBlur in="BackgroundImage" stdDeviation="10"/>
<feComposite in2="SourceAlpha" operator="in" result="effect1_backgroundBlur_0_1"/>
<feBlend mode="normal" in="SourceGraphic" in2="effect1_backgroundBlur_0_1" result="shape"/>
</filter>
</defs>
</svg>
