<svg width="54" height="54" viewBox="0 0 54 54" fill="none" xmlns="http://www.w3.org/2000/svg">
<g filter="url(#filter0_b_0_1)">
<circle cx="27" cy="27" r="27" fill="#0A070C" fill-opacity="0.6"/>
</g>
<path d="M30.4339 26.8131L21.4969 35.7431C21.1807 36.0601 21.0035 36.4898 21.0042 36.9375C21.0048 37.3853 21.1833 37.8144 21.5004 38.1306C21.8174 38.4467 22.2471 38.6239 22.6949 38.6233C23.1426 38.6226 23.5717 38.4441 23.8879 38.1271L34.0129 28.0131C34.3188 27.706 34.4946 27.2928 34.5037 26.8594C34.5128 26.426 34.3546 26.0058 34.0619 25.6861L23.8949 15.4931C23.5787 15.176 23.1496 14.9975 22.7019 14.9969C22.2541 14.9962 21.8244 15.1734 21.5074 15.4896C21.1903 15.8057 21.0118 16.2349 21.0112 16.6826C21.0105 17.1303 21.1877 17.56 21.5039 17.8771L30.4339 26.8131Z" fill="white"/>
<defs>
<filter id="filter0_b_0_1" x="-20" y="-20" width="94" height="94" filterUnits="userSpaceOnUse" color-interpolation-filters="sRGB">
<feFlood flood-opacity="0" result="BackgroundImageFix"/>
<feGaussianBlur in="BackgroundImage" stdDeviation="10"/>
<feComposite in2="SourceAlpha" operator="in" result="effect1_backgroundBlur_0_1"/>
<feBlend mode="normal" in="SourceGraphic" in2="effect1_backgroundBlur_0_1" result="shape"/>
</filter>
</defs>
</svg>
